<?xml version="1.0" encoding="UTF-8" standalone="no"?>
<svg
   xmlns="http://www.w3.org/2000/svg"
   viewBox="0 0 36.981199 35.374554"
   version="1.1"
   width="36.981197"
   height="35.374554">
  <defs>
    <style>
      .icon{fill:#252525;}
    </style>
  </defs>
  <path
     class="icon"
     d="m 33.51,6.56 a 6,6 0 0 0 -8,2.88 0.42,0.42 0 0 0 0,0.1 L 14,7.09 V 7 a 7,7 0 1 0 -7,7 5.44,5.44 0 0 0 0.57,0 l 2.12,8 a 7,7 0 0 0 0,12.67 7,7 0 0 0 9,-10 l 8.68,-7.82 a 5.4,5.4 0 0 0 1,0.59 5.92,5.92 0 0 0 2.55,0.57 6,6 0 0 0 2.57,-11.45 z M 9.37,10.83 A 3.79,3.79 0 0 1 8.56,11.22 L 8.2,11.34 a 4.17,4.17 0 0 1 -1.27,0.14 4.06,4.06 0 0 1 -1.8,-0.42 4.49,4.49 0 1 1 6.38,-4.48 4.54,4.54 0 0 1 -0.14,1.27 0.2,0.2 0 0 1 0,0.07 4.8,4.8 0 0 1 -0.33,1 c 0,0.05 -0.05,0.09 -0.07,0.14 a 4.32,4.32 0 0 1 -1.6,1.77 z m 7.43,19.36 a 4.49,4.49 0 1 1 -6.43,-5.74 4.88,4.88 0 0 1 0.83,-0.4 l 0.34,-0.11 v 0 a 4.56,4.56 0 0 1 1.16,-0.15 h 0.11 a 4.43,4.43 0 0 1 1.8,0.42 4.09,4.09 0 0 1 0.46,0.25 4.54,4.54 0 0 1 1,0.82 4.54,4.54 0 0 1 0.71,4.9 z m 0.24,-7.45 a 6.77,6.77 0 0 0 -1.32,-0.81 7,7 0 0 0 -3.54,-0.64 l -2.13,-8 A 7,7 0 0 0 13.37,10 3.93,3.93 0 0 0 13.55,9.57 L 24.94,12 a 6,6 0 0 0 0.79,3 z m 17.1,-9.25 a 3.49,3.49 0 0 1 -4.64,1.67 l -0.1,-0.05 a 3.33,3.33 0 0 1 -1,-0.79 3.24,3.24 0 0 1 -0.65,-1.1 3,3 0 0 1 -0.19,-0.67 3.56,3.56 0 0 1 0,-1.26 v 0 a 3.15,3.15 0 0 1 0.25,-0.75 3,3 0 0 1 0.24,-0.43 3.47,3.47 0 0 1 2.92,-1.58 3.54,3.54 0 0 1 1.48,0.33 3.5,3.5 0 0 1 1.65,4.63 z" />
  <path
     class="icon"
     d="m 8.37,7.09 a 0.44,0.44 0 0 1 0,0.16 v 0 a 1.34,1.34 0 0 1 -1,1 H 7.24 v 0 A 1.32,1.32 0 0 1 5.94,7.68 c 0,0 0,0 0,0 A 1.21,1.21 0 0 1 5.76,7.3 1.34,1.34 0 0 1 6.7,5.66 a 1.35,1.35 0 0 1 1,0.13 v 0 A 1.38,1.38 0 0 1 8.32,6.6 1.34,1.34 0 0 1 8.37,7.09 Z" />
  <path
     class="icon"
     d="m 13.99,27.93 a 1,1 0 0 0 -0.18,-0.38 c 0,0 0,0 0,0 A 1.13,1.13 0 0 0 13.71,27.42 1.34,1.34 0 0 0 12.37,27 l -0.17,0.06 v 0 a 1.33,1.33 0 0 0 -0.8,1.13 v 0 a 1.26,1.26 0 0 0 0,0.43 1.33,1.33 0 0 0 1.64,1 1.32,1.32 0 0 0 0.82,-0.65 v 0 a 1.38,1.38 0 0 0 0.13,-1.04 z m -1.29,0.35 z" />
  <path
     class="icon"
     d="m 31.51,13.21 v 0 l -0.19,0.07 a 1.35,1.35 0 0 1 -1,-0.15 v 0 a 1.16,1.16 0 0 1 -0.29,-0.25 1.3,1.3 0 0 1 -0.3,-0.54 1.19,1.19 0 0 1 0,-0.62 1.16,1.16 0 0 1 0.13,-0.37 v 0 a 1.28,1.28 0 0 1 0.81,-0.64 h 0.16 v 0 a 1.35,1.35 0 0 1 1.47,1 1.33,1.33 0 0 1 -0.79,1.5 z" />
</svg>
