<?xml version="1.0" encoding="UTF-8" standalone="no"?>
<svg
   xmlns="http://www.w3.org/2000/svg"
   viewBox="0 0 332.38 40.25"
   version="1.1"
   width="332.38"
   height="40.25">
  <defs>
    <style>
      .icon{fill:#db5838;}
      .pt{fill:#252525;}
      .bg{fill:#da5134;}
    </style>
  </defs>
  <path
     class="icon"
     d="m 33.48,7.04 a 6,6 0 0 0 -8,2.88 0.42,0.42 0 0 0 0,0.1 L 14,7.58 V 7.51 a 7,7 0 1 0 -7,7 h 0.57 l 2.12,8 a 7,7 0 0 0 0,12.67 7,7 0 0 0 9,-10 l 8.72,-7.78 a 5.4,5.4 0 0 0 1,0.59 5.92,5.92 0 0 0 2.55,0.57 6,6 0 0 0 2.57,-11.45 z M 9.3,11.31 A 3.79,3.79 0 0 1 8.49,11.7 l -0.36,0.12 a 4.17,4.17 0 0 1 -1.27,0.14 4.06,4.06 0 0 1 -1.8,-0.42 4.49,4.49 0 1 1 6.38,-4.48 4.54,4.54 0 0 1 -0.07,1.27 0.2,0.2 0 0 1 0,0.07 4.8,4.8 0 0 1 -0.33,1 c 0,0 -0.04,0.08 -0.04,0.18 a 4.32,4.32 0 0 1 -1.7,1.73 z m 7.43,19.36 a 4.49,4.49 0 1 1 -6.41,-5.74 4.88,4.88 0 0 1 0.83,-0.4 l 0.34,-0.11 v 0 a 4.56,4.56 0 0 1 1.16,-0.15 h 0.11 a 4.43,4.43 0 0 1 1.8,0.42 4.09,4.09 0 0 1 0.46,0.25 4.54,4.54 0 0 1 1,0.82 4.54,4.54 0 0 1 0.71,4.9 z M 17,23.22 a 6.77,6.77 0 0 0 -1.32,-0.81 7,7 0 0 0 -3.54,-0.64 l -2.13,-8 A 7,7 0 0 0 13.34,10.43 3.93,3.93 0 0 0 13.52,10 l 11.39,2.48 a 6,6 0 0 0 0.79,3 z m 17.1,-9.25 a 3.49,3.49 0 0 1 -4.64,1.67 l -0.1,-0.05 a 3.33,3.33 0 0 1 -1,-0.79 3.24,3.24 0 0 1 -0.65,-1.1 3,3 0 0 1 -0.19,-0.67 3.56,3.56 0 0 1 0,-1.26 v 0 A 3.15,3.15 0 0 1 27.77,11.02 3,3 0 0 1 28,10.58 3.47,3.47 0 0 1 30.92,9 a 3.54,3.54 0 0 1 1.48,0.33 3.5,3.5 0 0 1 1.67,4.64 z" />
  <path
     class="icon"
     d="m 8.3,7.58 a 0.44,0.44 0 0 1 0,0.16 v 0 a 1.34,1.34 0 0 1 -1,1 H 7.17 v 0 A 1.32,1.32 0 0 1 5.87,8.17 c 0,0 0,0 0,0 A 1.21,1.21 0 0 1 5.69,7.79 1.34,1.34 0 0 1 6.63,6.15 a 1.35,1.35 0 0 1 1,0.13 v 0 A 1.38,1.38 0 0 1 8.25,7.09 1.34,1.34 0 0 1 8.3,7.58 Z" />
  <path
     class="icon"
     d="m 14,28.41 a 1,1 0 0 0 -0.18,-0.38 c 0,0 0,0 0,0 a 1.13,1.13 0 0 0 -0.1,-0.13 1.34,1.34 0 0 0 -1.35,-0.41 l -0.17,0.06 a 1.33,1.33 0 0 0 -0.8,1.13 v 0 a 1.26,1.26 0 0 0 0,0.43 1.33,1.33 0 0 0 1.64,1 1.32,1.32 0 0 0 0.82,-0.65 v 0 A 1.38,1.38 0 0 0 14,28.41 Z m -1.29,0.35 z" />
  <path
     class="icon"
     d="m 31.47,13.69 v 0 l -0.19,0.07 a 1.35,1.35 0 0 1 -1,-0.15 v 0 a 1.16,1.16 0 0 1 -0.29,-0.25 1.3,1.3 0 0 1 -0.3,-0.54 1.19,1.19 0 0 1 0,-0.62 1.16,1.16 0 0 1 0.13,-0.37 v 0 a 1.28,1.28 0 0 1 0.81,-0.64 h 0.16 v 0 a 1.35,1.35 0 0 1 1.47,1 1.33,1.33 0 0 1 -0.79,1.5 z" />
  <path
     class="pt"
     d="M 55.56,19.58 H 52 v 9.3 H 49.3 V 2.5 h 6.6 c 7,0 10.3,3.4 10.3,8.3 -0.04,5.78 -4.14,8.7 -10.64,8.78 z m 0.2,-14.6 h -3.9 v 12.1 l 3.8,-0.1 c 5,-0.1 7.7,-2.1 7.7,-6.2 C 63.36,7.1 60.76,5 55.76,5 Z" />
  <path
     class="pt"
     d="m 78.36,28.8 -1.6,4.2 c -1.8,4.7 -3.6,6.1 -6.3,6.1 a 9.24,9.24 0 0 1 -3.8,-0.9 l 0.8,-2.4 a 6.11,6.11 0 0 0 3,0.8 c 1.5,0 2.6,-0.8 4,-4.5 l 1.3,-3.4 -7.5,-19.12 h 2.8 l 6.1,16 6,-16 h 2.7 z" />
  <path
     class="pt"
     d="M 94.86,5.1 V 29 h -2.7 V 5.1 h -9.3 V 2.5 h 21.3 V 5 h -9.3 z" />
  <path
     class="pt"
     d="m 111.76,29.5 c -5.4,0 -9.4,-4 -9.4,-10.2 0,-6.2 4.1,-10.3 9.6,-10.3 5.5,0 9.3,4 9.3,10.2 0,6.2 -4.1,10.3 -9.5,10.3 z m 0.1,-18.1 c -4.1,0 -6.8,3.3 -6.8,7.8 0,4.7 2.8,7.9 6.9,7.9 4.1,0 6.8,-3.3 6.8,-7.8 0,-4.72 -2.76,-7.9 -6.9,-7.9 z" />
  <path
     class="pt"
     d="m 128,29 h -2.6 V 9.58 l 2.6,-0.5 v 4.1 c 1.3,-2.5 3.2,-4.1 5.7,-4.1 a 7.13,7.13 0 0 1 3.4,0.9 l -0.7,2.5 a 5.83,5.83 0 0 0 -3,-0.8 c -2,0 -3.9,1.5 -5.5,5 v 12.3 z" />
  <path
     class="pt"
     d="m 147.36,29.5 c -5.8,0 -9.5,-4.2 -9.5,-10.2 0,-6 4,-10.3 9.5,-10.3 a 10.93,10.93 0 0 1 6.1,1.7 l -0.7,2.4 a 9.56,9.56 0 0 0 -5.4,-1.6 c -4.2,0 -6.8,3.1 -6.8,7.7 0,4.6 2.8,7.8 6.9,7.8 a 10.06,10.06 0 0 0 5.4,-1.6 l 0.5,2.4 a 11.07,11.07 0 0 1 -6,1.7 z" />
  <path
     class="pt"
     d="M 169.66,29 V 16.5 c 0,-3.4 -1.4,-4.9 -4.1,-4.9 a 8.48,8.48 0 0 0 -6,2.8 V 29.1 H 157 V 0.5 L 159.6,0 v 12.2 a 10.08,10.08 0 0 1 6.7,-3.1 c 3.8,0 6.1,2.4 6.1,6.6 V 29 Z" />
  <path
     class="bg"
     d="m 202.7,22.12 c 0,4.37 -2.87,7.46 -9.65,7.46 h -8.7 V 2.78 h 8.36 c 6.43,0 9.13,2.92 9.13,7 0,2.62 -1.58,5.19 -5.14,6.09 3.94,0.76 6,3.12 6,6.25 z M 192.84,5.27 h -5.75 v 9.65 h 5.32 c 4,0 6.69,-1.76 6.69,-4.93 0,-2.88 -2.02,-4.72 -6.26,-4.72 z m -0.26,12.13 h -5.49 v 9.69 h 6.18 c 4.71,0 6.69,-1.92 6.69,-5 0,-3.08 -2.62,-4.69 -7.38,-4.69 z" />
  <path
     class="bg"
     d="m 208.1,5.44 a 1.8,1.8 0 0 1 -1.8,-2 1.8,1.8 0 1 1 3.6,0 1.8,1.8 0 0 1 -1.8,2 z m -1.33,24.14 V 9.94 l 2.66,-0.55 v 20.19 z" />
  <path
     class="bg"
     d="m 213.67,26.49 c 0,-1.63 1.42,-3 3.22,-3.73 a 6.85,6.85 0 0 1 -3.18,-6 c 0,-4.16 3.09,-7.37 7.72,-7.37 a 9.25,9.25 0 0 1 4.63,1.19 l 5.45,-0.42 0.13,2.65 -4.33,-0.42 a 6.82,6.82 0 0 1 1.58,4.41 c 0,4.16 -3.26,7.2 -7.63,7.2 a 8.5,8.5 0 0 1 -2.92,-0.55 c -1,0.43 -2.18,1.24 -2.18,2.36 0,1.12 0.94,2 4.46,2 h 2.53 c 5.7,0 8.14,1.93 8.14,5.15 0,4.33 -4.84,7.29 -10.33,7.29 -5.27,0 -8.88,-2.32 -8.88,-5.75 a 5.25,5.25 0 0 1 4.25,-4.92 c -1.67,-0.56 -2.66,-1.67 -2.66,-3.09 z m 1,7.51 c 0,2.31 2.53,4 6.69,4 4.16,0 7.37,-2 7.37,-4.63 0,-2.32 -2.06,-3.13 -6,-3.13 -1.33,0 -3,0 -4.12,-0.13 -2.32,0.67 -3.95,2.22 -3.95,3.89 z m 6.73,-12.18 c 3,0 4.89,-2.14 4.89,-5.14 0,-3 -1.72,-5.11 -5,-5.11 -3,0 -4.93,2.19 -4.93,5.23 a 4.79,4.79 0 0 0 5.03,5.02 z" />
  <path
     class="bg"
     d="m 247.63,30.14 c -7.76,0 -12.95,-5.4 -12.95,-13.89 0,-8.49 5.44,-14 12.95,-14 a 17.33,17.33 0 0 1 8.49,2.23 l -0.9,2.48 a 14.87,14.87 0 0 0 -7.64,-2.23 c -5.83,0 -10.12,4.16 -10.12,11.45 0,7.08 4.08,11.49 10.21,11.49 a 13.23,13.23 0 0 0 6.43,-1.63 v -7.31 h -7.76 v -2.48 h 10.42 v 11.23 a 17,17 0 0 1 -9.13,2.66 z" />
  <path
     class="bg"
     d="m 264.34,29.58 h -2.65 V 9.94 l 2.65,-0.55 v 4.19 c 1.29,-2.53 3.22,-4.2 5.79,-4.2 a 7.06,7.06 0 0 1 3.43,0.9 l -0.68,2.48 a 5.9,5.9 0 0 0 -3,-0.85 c -2.06,0 -4,1.54 -5.54,5.06 z" />
  <path
     class="bg"
     d="m 287,27.22 a 7.62,7.62 0 0 1 -5.74,2.92 c -3.6,0 -6.22,-2.32 -6.22,-5.45 0,-3.56 2.79,-6.47 11.92,-7 v -1.11 c 0,-3.09 -1.37,-4.68 -4.63,-4.68 a 12,12 0 0 0 -6.43,2.36 l -0.6,-2.49 a 13.94,13.94 0 0 1 7.29,-2.35 c 4.54,0 7.07,2 7,7 v 9.43 c 0,1.42 0.26,2 2,2 l -0.17,2.19 c -2.57,0.17 -4,-0.86 -4.29,-2.79 z m 0,-7.71 c -6.73,0.77 -9.13,2.27 -9.13,4.88 0,2.1 1.71,3.43 4,3.43 a 7,7 0 0 0 5.1,-2.57 z" />
  <path
     class="bg"
     d="m 303.92,9.52 c 5.31,0 8.79,4.2 8.79,10.16 0,5.96 -4,10.46 -9.7,10.46 a 12.69,12.69 0 0 1 -4.8,-1 v 10.44 h -2.66 V 9.86 l 2.66,-0.56 v 2.62 a 8.41,8.41 0 0 1 5.71,-2.4 z m -5.71,16.67 a 8.21,8.21 0 0 0 4.93,1.55 c 4.2,0 6.82,-3.39 6.82,-8 0,-4.61 -2.49,-7.76 -6.47,-7.76 a 7.93,7.93 0 0 0 -5.28,2.19 z" />
  <path
     class="bg"
     d="M 329.72,29.58 V 16.89 c 0,-3.43 -1.37,-5 -4.2,-5 a 8.87,8.87 0 0 0 -6.09,2.78 v 14.91 h -2.66 V 0.68 l 2.66,-0.56 v 12.4 a 10.05,10.05 0 0 1 6.82,-3.13 c 3.82,0 6.13,2.44 6.13,6.73 v 13.46 z" />
</svg>
